<svg width="20" height="20" viewBox="0 0 20 20" fill="none" xmlns="http://www.w3.org/2000/svg">
<path d="M11.6667 17.5003H8.33334M15 6.66699C15 5.34091 14.4732 4.06914 13.5355 3.13146C12.5979 2.19378 11.3261 1.66699 10 1.66699C8.67392 1.66699 7.40215 2.19378 6.46447 3.13146C5.52679 4.06914 5 5.34091 5 6.66699C5 9.24215 4.35039 11.0053 3.62472 12.1715C3.01261 13.1552 2.70655 13.6471 2.71777 13.7843C2.7302 13.9362 2.76239 13.9942 2.88482 14.085C2.99539 14.167 3.49383 14.167 4.49071 14.167H15.5093C16.5062 14.167 17.0046 14.167 17.1152 14.085C17.2376 13.9942 17.2698 13.9362 17.2822 13.7843C17.2935 13.6471 16.9874 13.1552 16.3753 12.1715C15.6496 11.0053 15 9.24215 15 6.66699Z" stroke="#222224" stroke-width="1.8" stroke-linecap="round" stroke-linejoin="round"/>
</svg>
